<?xml version="1.0" encoding="UTF-8" standalone="no"?>
<!DOCTYPE svg PUBLIC "-//W3C//DTD SVG 1.1//EN"
 "http://www.w3.org/Graphics/SVG/1.1/DTD/svg11.dtd">
<!-- Generated by graphviz version 2.43.0 (0)
 -->
<!-- Title: architecture Pages: 1 -->
<svg width="828pt" height="788pt"
 viewBox="0.00 0.00 828.00 788.00" xmlns="http://www.w3.org/2000/svg" xmlns:xlink="http://www.w3.org/1999/xlink">
<g id="graph0" class="graph" transform="scale(1 1) rotate(0) translate(4 784)">
<title>architecture</title>
<polygon fill="white" stroke="transparent" points="-4,4 -4,-784 824,-784 824,4 -4,4"/>
<text text-anchor="middle" x="410" y="-764.8" font-family="Helvetica,sans-Serif" font-size="14.00">highs/quantum/ — three layers, one subprocess boundary</text>
<g id="clust1" class="cluster">
<title>cluster_cli</title>
<path fill="none" stroke="#999999" stroke-dasharray="5,2" d="M148,-672C148,-672 584,-672 584,-672 590,-672 596,-678 596,-684 596,-684 596,-737 596,-737 596,-743 590,-749 584,-749 584,-749 148,-749 148,-749 142,-749 136,-743 136,-737 136,-737 136,-684 136,-684 136,-678 142,-672 148,-672"/>
<text text-anchor="middle" x="366" y="-733.8" font-family="Helvetica,sans-Serif" font-size="14.00">CLI (end&#45;user)</text>
</g>
<g id="clust2" class="cluster">
<title>cluster_python</title>
<path fill="none" stroke="#999999" stroke-dasharray="5,2" d="M20,-223C20,-223 366,-223 366,-223 372,-223 378,-229 378,-235 378,-235 378,-631 378,-631 378,-637 372,-643 366,-643 366,-643 20,-643 20,-643 14,-643 8,-637 8,-631 8,-631 8,-235 8,-235 8,-229 14,-223 20,-223"/>
<text text-anchor="middle" x="193" y="-627.8" font-family="Helvetica,sans-Serif" font-size="14.00">Python package — highspy_quantum</text>
</g>
<g id="clust3" class="cluster">
<title>cluster_cpp</title>
<path fill="none" stroke="#999999" stroke-dasharray="5,2" d="M398,-8C398,-8 759,-8 759,-8 765,-8 771,-14 771,-20 771,-20 771,-288 771,-288 771,-294 765,-300 759,-300 759,-300 398,-300 398,-300 392,-300 386,-294 386,-288 386,-288 386,-20 386,-20 386,-14 392,-8 398,-8"/>
<text text-anchor="middle" x="578.5" y="-284.8" font-family="Helvetica,sans-Serif" font-size="14.00">C++ MIP heuristic — built only when QUANTUM=ON</text>
</g>
<!-- cli -->
<g id="node1" class="node">
<title>cli</title>
<path fill="#dbeafe" stroke="black" d="M575.5,-718C575.5,-718 390.5,-718 390.5,-718 384.5,-718 378.5,-712 378.5,-706 378.5,-706 378.5,-692 378.5,-692 378.5,-686 384.5,-680 390.5,-680 390.5,-680 575.5,-680 575.5,-680 581.5,-680 587.5,-686 587.5,-692 587.5,-692 587.5,-706 587.5,-706 587.5,-712 581.5,-718 575.5,-718"/>
<text text-anchor="middle" x="483" y="-702.8" font-family="Helvetica,sans-Serif" font-size="14.00">highs&#45;quantum solve </text>
<text text-anchor="middle" x="483" y="-687.8" font-family="Helvetica,sans-Serif" font-size="14.00"> &#160;&#160;&#160;&#160;model.mps &#45;&#45;backend …</text>
</g>
<!-- structure -->
<g id="node3" class="node">
<title>structure</title>
<path fill="#f5f5f5" stroke="black" d="M344,-612C344,-612 160,-612 160,-612 154,-612 148,-606 148,-600 148,-600 148,-586 148,-586 148,-580 154,-574 160,-574 160,-574 344,-574 344,-574 350,-574 356,-580 356,-586 356,-586 356,-600 356,-600 356,-606 350,-612 344,-612"/>
<text text-anchor="middle" x="252" y="-596.8" font-family="Helvetica,sans-Serif" font-size="14.00">structure.detect()</text>
<text text-anchor="middle" x="252" y="-581.8" font-family="Helvetica,sans-Serif" font-size="14.00">+ specialized BQM builders</text>
</g>
<!-- cli&#45;&gt;structure -->
<g id="edge1" class="edge">
<title>cli&#45;&gt;structure</title>
<path fill="none" stroke="black" d="M442.76,-679.88C403.47,-662.19 343.58,-635.23 301.41,-616.25"/>
<polygon fill="black" stroke="black" points="302.72,-613 292.16,-612.08 299.84,-619.38 302.72,-613"/>
<text text-anchor="middle" x="431.5" y="-654" font-family="Helvetica,sans-Serif" font-size="10.00"> &#160;reads input</text>
</g>
<!-- bench -->
<g id="node2" class="node">
<title>bench</title>
<path fill="#dbeafe" stroke="black" d="M348,-718C348,-718 156,-718 156,-718 150,-718 144,-712 144,-706 144,-706 144,-692 144,-692 144,-686 150,-680 156,-680 156,-680 348,-680 348,-680 354,-680 360,-686 360,-692 360,-692 360,-706 360,-706 360,-712 354,-718 348,-718"/>
<text text-anchor="middle" x="252" y="-702.8" font-family="Helvetica,sans-Serif" font-size="14.00">highs&#45;quantum benchmark </text>
<text text-anchor="middle" x="252" y="-687.8" font-family="Helvetica,sans-Serif" font-size="14.00"> &#160;&#160;&#160;&#160;model.mps &#45;&#45;backends …</text>
</g>
<!-- bench&#45;&gt;structure -->
<g id="edge2" class="edge">
<title>bench&#45;&gt;structure</title>
<path fill="none" stroke="black" d="M252,-679.88C252,-664.03 252,-640.72 252,-622.38"/>
<polygon fill="black" stroke="black" points="255.5,-622.26 252,-612.26 248.5,-622.26 255.5,-622.26"/>
</g>
<!-- model_py -->
<g id="node4" class="node">
<title>model_py</title>
<path fill="#f5f5f5" stroke="black" d="M358,-516C358,-516 146,-516 146,-516 140,-516 134,-510 134,-504 134,-504 134,-475 134,-475 134,-469 140,-463 146,-463 146,-463 358,-463 358,-463 364,-463 370,-469 370,-475 370,-475 370,-504 370,-504 370,-510 364,-516 358,-516"/>
<text text-anchor="middle" x="252" y="-500.8" font-family="Helvetica,sans-Serif" font-size="14.00">model.py</text>
<text text-anchor="middle" x="252" y="-485.8" font-family="Helvetica,sans-Serif" font-size="14.00"> &#160;• MipSubproblem</text>
<text text-anchor="middle" x="252" y="-470.8" font-family="Helvetica,sans-Serif" font-size="14.00"> &#160;• generic penalty Bqm builder</text>
</g>
<!-- structure&#45;&gt;model_py -->
<g id="edge6" class="edge">
<title>structure&#45;&gt;model_py</title>
<path fill="none" stroke="black" d="M252,-573.85C252,-560.66 252,-542.38 252,-526.29"/>
<polygon fill="black" stroke="black" points="255.5,-526.11 252,-516.11 248.5,-526.11 255.5,-526.11"/>
<text text-anchor="middle" x="294" y="-548" font-family="Helvetica,sans-Serif" font-size="10.00">fallback if no</text>
<text text-anchor="middle" x="294" y="-537" font-family="Helvetica,sans-Serif" font-size="10.00"> &#160;structure match</text>
</g>
<!-- backends -->
<g id="node6" class="node">
<title>backends</title>
<path fill="#f5f5f5" stroke="black" d="M307,-405C307,-405 197,-405 197,-405 191,-405 185,-399 185,-393 185,-393 185,-349 185,-349 185,-343 191,-337 197,-337 197,-337 307,-337 307,-337 313,-337 319,-343 319,-349 319,-349 319,-393 319,-393 319,-399 313,-405 307,-405"/>
<text text-anchor="middle" x="252" y="-389.8" font-family="Helvetica,sans-Serif" font-size="14.00">backends/</text>
<text text-anchor="middle" x="252" y="-374.8" font-family="Helvetica,sans-Serif" font-size="14.00"> &#160;classical | exact</text>
<text text-anchor="middle" x="252" y="-359.8" font-family="Helvetica,sans-Serif" font-size="14.00"> &#160;dwave | qiskit</text>
<text text-anchor="middle" x="252" y="-344.8" font-family="Helvetica,sans-Serif" font-size="14.00"> &#160;rigetti | braket</text>
</g>
<!-- structure&#45;&gt;backends -->
<g id="edge7" class="edge">
<title>structure&#45;&gt;backends</title>
<path fill="none" stroke="#16a34a" d="M147.74,-579.56C108.24,-569.19 67.03,-550.31 43,-516 1.45,-456.68 99.42,-414.17 174.87,-391.34"/>
<polygon fill="#16a34a" stroke="#16a34a" points="176.28,-394.57 184.88,-388.38 174.3,-387.86 176.28,-394.57"/>
<text text-anchor="middle" x="84" y="-487" font-family="Helvetica,sans-Serif" font-size="10.00">specialized BQM</text>
</g>
<!-- model_py&#45;&gt;backends -->
<g id="edge8" class="edge">
<title>model_py&#45;&gt;backends</title>
<path fill="none" stroke="black" d="M252,-462.93C252,-448.98 252,-431.32 252,-415.29"/>
<polygon fill="black" stroke="black" points="255.5,-415.04 252,-405.04 248.5,-415.04 255.5,-415.04"/>
</g>
<!-- repair -->
<g id="node5" class="node">
<title>repair</title>
<path fill="#f5f5f5" stroke="black" d="M353,-269C353,-269 181,-269 181,-269 175,-269 169,-263 169,-257 169,-257 169,-243 169,-243 169,-237 175,-231 181,-231 181,-231 353,-231 353,-231 359,-231 365,-237 365,-243 365,-243 365,-257 365,-257 365,-263 359,-269 353,-269"/>
<text text-anchor="middle" x="267" y="-253.8" font-family="Helvetica,sans-Serif" font-size="14.00">repair.py</text>
<text text-anchor="middle" x="267" y="-238.8" font-family="Helvetica,sans-Serif" font-size="14.00"> &#160;greedy round&#45;and&#45;repair</text>
</g>
<!-- heuristic -->
<g id="node8" class="node">
<title>heuristic</title>
<path fill="#f5f5f5" stroke="black" d="M626,-184C626,-184 406,-184 406,-184 400,-184 394,-178 394,-172 394,-172 394,-143 394,-143 394,-137 400,-131 406,-131 406,-131 626,-131 626,-131 632,-131 638,-137 638,-143 638,-143 638,-172 638,-172 638,-178 632,-184 626,-184"/>
<text text-anchor="middle" x="516" y="-168.8" font-family="Helvetica,sans-Serif" font-size="14.00">HighsQuantumHeuristic</text>
<text text-anchor="middle" x="516" y="-153.8" font-family="Helvetica,sans-Serif" font-size="14.00"> &#160;• dispatch() — fire&#45;and&#45;forget</text>
<text text-anchor="middle" x="516" y="-138.8" font-family="Helvetica,sans-Serif" font-size="14.00"> &#160;• harvest() — non&#45;blocking poll</text>
</g>
<!-- repair&#45;&gt;heuristic -->
<g id="edge10" class="edge">
<title>repair&#45;&gt;heuristic</title>
<path fill="none" stroke="#dc2626" stroke-dasharray="5,2" d="M296,-230.88C312.29,-221.29 333.25,-209.9 353,-202 366.72,-196.51 381.36,-191.5 396.03,-186.98"/>
<polygon fill="#dc2626" stroke="#dc2626" points="397.09,-190.32 405.66,-184.09 395.08,-183.62 397.09,-190.32"/>
<text text-anchor="middle" x="380.5" y="-205" font-family="Helvetica,sans-Serif" font-size="10.00" fill="#dc2626">result JSON</text>
</g>
<!-- backends&#45;&gt;repair -->
<g id="edge9" class="edge">
<title>backends&#45;&gt;repair</title>
<path fill="none" stroke="black" d="M256.18,-336.85C258.46,-318.74 261.26,-296.55 263.44,-279.26"/>
<polygon fill="black" stroke="black" points="266.93,-279.58 264.7,-269.22 259.98,-278.7 266.93,-279.58"/>
<text text-anchor="middle" x="288" y="-311" font-family="Helvetica,sans-Serif" font-size="10.00">if infeasible</text>
</g>
<!-- mip -->
<g id="node7" class="node">
<title>mip</title>
<path fill="#fef3c7" stroke="black" d="M529.5,-269C529.5,-269 428.5,-269 428.5,-269 422.5,-269 416.5,-263 416.5,-257 416.5,-257 416.5,-243 416.5,-243 416.5,-237 422.5,-231 428.5,-231 428.5,-231 529.5,-231 529.5,-231 535.5,-231 541.5,-237 541.5,-243 541.5,-243 541.5,-257 541.5,-257 541.5,-263 535.5,-269 529.5,-269"/>
<text text-anchor="middle" x="479" y="-253.8" font-family="Helvetica,sans-Serif" font-size="14.00">HighsMipSolver</text>
<text text-anchor="middle" x="479" y="-238.8" font-family="Helvetica,sans-Serif" font-size="14.00">(dive loop)</text>
</g>
<!-- mip&#45;&gt;heuristic -->
<g id="edge3" class="edge">
<title>mip&#45;&gt;heuristic</title>
<path fill="none" stroke="black" d="M428.61,-230.97C415.69,-223.4 407.35,-213.63 415,-202 417.74,-197.83 420.98,-194.06 424.57,-190.66"/>
<polygon fill="black" stroke="black" points="426.96,-193.22 432.43,-184.15 422.49,-187.83 426.96,-193.22"/>
<text text-anchor="middle" x="453" y="-205" font-family="Helvetica,sans-Serif" font-size="10.00">per&#45;dive trigger</text>
</g>
<!-- heuristic&#45;&gt;cli -->
<g id="edge5" class="edge">
<title>heuristic&#45;&gt;cli</title>
<path fill="none" stroke="#dc2626" stroke-dasharray="5,2" d="M552.5,-184.37C570.75,-200.54 589,-223.16 589,-249 589,-594 589,-594 589,-594 589,-629.51 558.31,-656.92 529.96,-674.66"/>
<polygon fill="#dc2626" stroke="#dc2626" points="528.06,-671.72 521.27,-679.86 531.65,-677.73 528.06,-671.72"/>
<text text-anchor="middle" x="704.5" y="-437" font-family="Helvetica,sans-Serif" font-size="10.00" fill="#dc2626">subprocess: python &#45;m highspy_quantum solve</text>
<text text-anchor="middle" x="704.5" y="-426" font-family="Helvetica,sans-Serif" font-size="10.00" fill="#dc2626">&#45;&#45;in /tmp/*.in.json &#45;&#45;out /tmp/*.out.json</text>
</g>
<!-- heuristic&#45;&gt;mip -->
<g id="edge11" class="edge">
<title>heuristic&#45;&gt;mip</title>
<path fill="none" stroke="black" d="M505.44,-184.33C500.71,-195.9 495.13,-209.55 490.31,-221.32"/>
<polygon fill="black" stroke="black" points="487.03,-220.11 486.49,-230.69 493.51,-222.75 487.03,-220.11"/>
<text text-anchor="middle" x="527.5" y="-205" font-family="Helvetica,sans-Serif" font-size="10.00">trySolution()</text>
</g>
<!-- qubo -->
<g id="node9" class="node">
<title>qubo</title>
<path fill="#f5f5f5" stroke="black" d="M616.5,-84C616.5,-84 415.5,-84 415.5,-84 409.5,-84 403.5,-78 403.5,-72 403.5,-72 403.5,-28 403.5,-28 403.5,-22 409.5,-16 415.5,-16 415.5,-16 616.5,-16 616.5,-16 622.5,-16 628.5,-22 628.5,-28 628.5,-28 628.5,-72 628.5,-72 628.5,-78 622.5,-84 616.5,-84"/>
<text text-anchor="middle" x="516" y="-68.8" font-family="Helvetica,sans-Serif" font-size="14.00">HighsQubo</text>
<text text-anchor="middle" x="516" y="-53.8" font-family="Helvetica,sans-Serif" font-size="14.00"> &#160;• extractFromMip()</text>
<text text-anchor="middle" x="516" y="-38.8" font-family="Helvetica,sans-Serif" font-size="14.00"> &#160;• extractRinsNeighborhood()</text>
<text text-anchor="middle" x="516" y="-23.8" font-family="Helvetica,sans-Serif" font-size="14.00"> &#160;• toJson / parseResult</text>
</g>
<!-- heuristic&#45;&gt;qubo -->
<g id="edge4" class="edge">
<title>heuristic&#45;&gt;qubo</title>
<path fill="none" stroke="black" d="M516,-130.96C516,-120 516,-106.89 516,-94.48"/>
<polygon fill="black" stroke="black" points="519.5,-94.29 516,-84.29 512.5,-94.29 519.5,-94.29"/>
<text text-anchor="middle" x="558.5" y="-105" font-family="Helvetica,sans-Serif" font-size="10.00">build subproblem</text>
</g>
</g>
</svg>
