<?xml version="1.0" encoding="UTF-8" standalone="no"?>
<!DOCTYPE svg PUBLIC "-//W3C//DTD SVG 1.1//EN"
 "http://www.w3.org/Graphics/SVG/1.1/DTD/svg11.dtd">
<!-- Generated by graphviz version 2.43.0 (0)
 -->
<!-- Title: build_flags Pages: 1 -->
<svg width="1594pt" height="664pt"
 viewBox="0.00 0.00 1593.57 664.19" xmlns="http://www.w3.org/2000/svg" xmlns:xlink="http://www.w3.org/1999/xlink">
<g id="graph0" class="graph" transform="scale(1 1) rotate(0) translate(4 660.19)">
<title>build_flags</title>
<polygon fill="white" stroke="transparent" points="-4,4 -4,-660.19 1589.57,-660.19 1589.57,4 -4,4"/>
<text text-anchor="middle" x="792.78" y="-640.99" font-family="Helvetica,sans-Serif" font-size="14.00">QUANTUM=ON build flag propagation</text>
<!-- user -->
<g id="node1" class="node">
<title>user</title>
<ellipse fill="#dbeafe" stroke="black" cx="817.07" cy="-615.19" rx="178.17" ry="18"/>
<text text-anchor="middle" x="817.07" y="-611.49" font-family="Helvetica,sans-Serif" font-size="14.00">cmake &#45;S . &#45;B build &#45;DQUANTUM=ON</text>
</g>
<!-- top -->
<g id="node2" class="node">
<title>top</title>
<ellipse fill="#fef3c7" stroke="black" cx="817.07" cy="-523.72" rx="143.59" ry="37.45"/>
<text text-anchor="middle" x="817.07" y="-535.02" font-family="Helvetica,sans-Serif" font-size="14.00">CMakeLists.txt</text>
<text text-anchor="middle" x="817.07" y="-520.02" font-family="Helvetica,sans-Serif" font-size="14.00"> &#160;option(QUANTUM …)</text>
<text text-anchor="middle" x="817.07" y="-505.02" font-family="Helvetica,sans-Serif" font-size="14.00"> &#160;fatal_error if !FAST_BUILD</text>
</g>
<!-- user&#45;&gt;top -->
<g id="edge1" class="edge">
<title>user&#45;&gt;top</title>
<path fill="none" stroke="black" d="M817.07,-596.94C817.07,-589.64 817.07,-580.73 817.07,-571.71"/>
<polygon fill="black" stroke="black" points="820.57,-571.55 817.07,-561.55 813.57,-571.55 820.57,-571.55"/>
</g>
<!-- src -->
<g id="node3" class="node">
<title>src</title>
<ellipse fill="#fef3c7" stroke="black" cx="817.07" cy="-423.37" rx="200.64" ry="26.74"/>
<text text-anchor="middle" x="817.07" y="-427.17" font-family="Helvetica,sans-Serif" font-size="14.00">cmake/sources.cmake</text>
<text text-anchor="middle" x="817.07" y="-412.17" font-family="Helvetica,sans-Serif" font-size="14.00"> &#160;quantum_sources, quantum_headers</text>
</g>
<!-- top&#45;&gt;src -->
<g id="edge2" class="edge">
<title>top&#45;&gt;src</title>
<path fill="none" stroke="black" d="M817.07,-486.1C817.07,-477.72 817.07,-468.83 817.07,-460.48"/>
<polygon fill="black" stroke="black" points="820.57,-460.28 817.07,-450.28 813.57,-460.28 820.57,-460.28"/>
</g>
<!-- hicml -->
<g id="node4" class="node">
<title>hicml</title>
<ellipse fill="#fef3c7" stroke="black" cx="817.07" cy="-312.42" rx="274.21" ry="48.17"/>
<text text-anchor="middle" x="817.07" y="-331.22" font-family="Helvetica,sans-Serif" font-size="14.00">highs/CMakeLists.txt</text>
<text text-anchor="middle" x="817.07" y="-316.22" font-family="Helvetica,sans-Serif" font-size="14.00"> &#160;if(QUANTUM) append to sources</text>
<text text-anchor="middle" x="817.07" y="-301.22" font-family="Helvetica,sans-Serif" font-size="14.00"> &#160;target_compile_definitions(highs PUBLIC QUANTUM)</text>
<text text-anchor="middle" x="817.07" y="-286.22" font-family="Helvetica,sans-Serif" font-size="14.00"> &#160;target_include_directories(quantum/)</text>
</g>
<!-- src&#45;&gt;hicml -->
<g id="edge3" class="edge">
<title>src&#45;&gt;hicml</title>
<path fill="none" stroke="black" d="M817.07,-396.27C817.07,-388.5 817.07,-379.65 817.07,-370.7"/>
<polygon fill="black" stroke="black" points="820.57,-370.61 817.07,-360.61 813.57,-370.61 820.57,-370.61"/>
</g>
<!-- pub -->
<g id="node5" class="node">
<title>pub</title>
<ellipse fill="#dcfce7" stroke="black" cx="817.07" cy="-180.25" rx="205.54" ry="48.17"/>
<text text-anchor="middle" x="817.07" y="-199.05" font-family="Helvetica,sans-Serif" font-size="14.00">PUBLIC define propagates to:</text>
<text text-anchor="middle" x="817.07" y="-184.05" font-family="Helvetica,sans-Serif" font-size="14.00">• highs library object files</text>
<text text-anchor="middle" x="817.07" y="-169.05" font-family="Helvetica,sans-Serif" font-size="14.00">• highs&#45;bin executable</text>
<text text-anchor="middle" x="817.07" y="-154.05" font-family="Helvetica,sans-Serif" font-size="14.00">• every consumer linking against highs</text>
</g>
<!-- hicml&#45;&gt;pub -->
<g id="edge4" class="edge">
<title>hicml&#45;&gt;pub</title>
<path fill="none" stroke="black" d="M817.07,-264.05C817.07,-255.79 817.07,-247.1 817.07,-238.6"/>
<polygon fill="black" stroke="black" points="820.57,-238.36 817.07,-228.36 813.57,-238.36 820.57,-238.36"/>
</g>
<!-- hdr -->
<g id="node6" class="node">
<title>hdr</title>
<ellipse fill="#dcfce7" stroke="black" cx="176.07" cy="-48.08" rx="176.14" ry="37.45"/>
<text text-anchor="middle" x="176.07" y="-59.38" font-family="Helvetica,sans-Serif" font-size="14.00">HighsOptions.h #ifdef QUANTUM</text>
<text text-anchor="middle" x="176.07" y="-44.38" font-family="Helvetica,sans-Serif" font-size="14.00"> &#160;• new fields: mip_quantum_*</text>
<text text-anchor="middle" x="176.07" y="-29.38" font-family="Helvetica,sans-Serif" font-size="14.00"> &#160;• new option records</text>
</g>
<!-- pub&#45;&gt;hdr -->
<g id="edge5" class="edge">
<title>pub&#45;&gt;hdr</title>
<path fill="none" stroke="black" d="M650.82,-151.8C564.16,-136.77 456.6,-117 361.07,-96.17 339.21,-91.4 316.01,-85.87 293.71,-80.32"/>
<polygon fill="black" stroke="black" points="294.42,-76.89 283.87,-77.85 292.72,-83.68 294.42,-76.89"/>
</g>
<!-- data -->
<g id="node7" class="node">
<title>data</title>
<ellipse fill="#dcfce7" stroke="black" cx="585.07" cy="-48.08" rx="214.92" ry="48.17"/>
<text text-anchor="middle" x="585.07" y="-66.88" font-family="Helvetica,sans-Serif" font-size="14.00">HighsMipSolverData.h #ifdef QUANTUM</text>
<text text-anchor="middle" x="585.07" y="-51.88" font-family="Helvetica,sans-Serif" font-size="14.00"> &#160;• includes HighsQuantumHeuristic.h</text>
<text text-anchor="middle" x="585.07" y="-36.88" font-family="Helvetica,sans-Serif" font-size="14.00"> &#160;• unique_ptr&lt;HighsQuantumHeuristic&gt;</text>
<text text-anchor="middle" x="585.07" y="-21.88" font-family="Helvetica,sans-Serif" font-size="14.00"> &#160;• quantum_dive_counter_</text>
</g>
<!-- pub&#45;&gt;data -->
<g id="edge6" class="edge">
<title>pub&#45;&gt;data</title>
<path fill="none" stroke="black" d="M739.17,-135.54C717.65,-123.47 694.16,-110.29 672.16,-97.95"/>
<polygon fill="black" stroke="black" points="673.59,-94.74 663.16,-92.9 670.17,-100.84 673.59,-94.74"/>
</g>
<!-- hooks -->
<g id="node8" class="node">
<title>hooks</title>
<ellipse fill="#dcfce7" stroke="black" cx="1049.07" cy="-48.08" rx="231.45" ry="37.45"/>
<text text-anchor="middle" x="1049.07" y="-59.38" font-family="Helvetica,sans-Serif" font-size="14.00">HighsMipSolver.cpp #ifdef QUANTUM blocks</text>
<text text-anchor="middle" x="1049.07" y="-44.38" font-family="Helvetica,sans-Serif" font-size="14.00"> &#160;• pre&#45;root hook</text>
<text text-anchor="middle" x="1049.07" y="-29.38" font-family="Helvetica,sans-Serif" font-size="14.00"> &#160;• dive&#45;loop hook (per&#45;dive)</text>
</g>
<!-- pub&#45;&gt;hooks -->
<g id="edge7" class="edge">
<title>pub&#45;&gt;hooks</title>
<path fill="none" stroke="black" d="M894.97,-135.54C921.7,-120.55 951.46,-103.85 977.65,-89.15"/>
<polygon fill="black" stroke="black" points="979.38,-92.2 986.38,-84.25 975.95,-86.09 979.38,-92.2"/>
</g>
<!-- abi -->
<g id="node9" class="node">
<title>abi</title>
<polygon fill="#fee2e2" stroke="black" points="1579.57,-74.58 1298.57,-74.58 1298.57,-21.58 1585.57,-21.58 1585.57,-68.58 1579.57,-74.58"/>
<polyline fill="none" stroke="black" points="1579.57,-74.58 1579.57,-68.58 "/>
<polyline fill="none" stroke="black" points="1585.57,-68.58 1579.57,-68.58 "/>
<text text-anchor="middle" x="1442.07" y="-59.38" font-family="Helvetica,sans-Serif" font-size="14.00">ABI consistency:</text>
<text text-anchor="middle" x="1442.07" y="-44.38" font-family="Helvetica,sans-Serif" font-size="14.00">struct layout identical across</text>
<text text-anchor="middle" x="1442.07" y="-29.38" font-family="Helvetica,sans-Serif" font-size="14.00">all consumers (avoid Sprint&#45;0 segfault)</text>
</g>
<!-- pub&#45;&gt;abi -->
<g id="edge8" class="edge">
<title>pub&#45;&gt;abi</title>
<path fill="none" stroke="black" stroke-dasharray="5,2" d="M989.92,-154.11C1079.71,-139.72 1190.89,-119.82 1289.07,-96.17 1310.86,-90.92 1334.11,-84.3 1355.73,-77.7"/>
<polygon fill="black" stroke="black" points="1357.01,-80.97 1365.54,-74.68 1354.95,-74.28 1357.01,-80.97"/>
</g>
</g>
</svg>
