<?xml version="1.0" encoding="UTF-8" standalone="no"?>
<!DOCTYPE svg PUBLIC "-//W3C//DTD SVG 1.1//EN"
 "http://www.w3.org/Graphics/SVG/1.1/DTD/svg11.dtd">
<!-- Generated by graphviz version 2.43.0 (0)
 -->
<!-- Title: dispatch_lifecycle Pages: 1 -->
<svg width="860pt" height="721pt"
 viewBox="0.00 0.00 860.00 721.00" xmlns="http://www.w3.org/2000/svg" xmlns:xlink="http://www.w3.org/1999/xlink">
<g id="graph0" class="graph" transform="scale(1 1) rotate(0) translate(4 717)">
<title>dispatch_lifecycle</title>
<polygon fill="white" stroke="transparent" points="-4,4 -4,-717 856,-717 856,4 -4,4"/>
<text text-anchor="middle" x="426" y="-697.8" font-family="Helvetica,sans-Serif" font-size="14.00">Async dispatch lifecycle — one quantum call</text>
<g id="clust1" class="cluster">
<title>cluster_search</title>
<path fill="none" stroke="#999999" d="M20,-219C20,-219 523,-219 523,-219 529,-219 535,-225 535,-231 535,-231 535,-670 535,-670 535,-676 529,-682 523,-682 523,-682 20,-682 20,-682 14,-682 8,-676 8,-670 8,-670 8,-231 8,-231 8,-225 14,-219 20,-219"/>
<text text-anchor="middle" x="271.5" y="-666.8" font-family="Helvetica,sans-Serif" font-size="14.00">HiGHS search thread</text>
</g>
<g id="clust2" class="cluster">
<title>cluster_worker</title>
<path fill="none" stroke="#999999" d="M555,-8C555,-8 761,-8 761,-8 767,-8 773,-14 773,-20 773,-20 773,-283 773,-283 773,-289 767,-295 761,-295 761,-295 555,-295 555,-295 549,-295 543,-289 543,-283 543,-283 543,-20 543,-20 543,-14 549,-8 555,-8"/>
<text text-anchor="middle" x="658" y="-279.8" font-family="Helvetica,sans-Serif" font-size="14.00">Worker std::thread (I/O&#45;bound)</text>
</g>
<!-- s_dive -->
<g id="node1" class="node">
<title>s_dive</title>
<path fill="#fef3c7" stroke="black" d="M485.5,-650C485.5,-650 366.5,-650 366.5,-650 360.5,-650 354.5,-644 354.5,-638 354.5,-638 354.5,-626 354.5,-626 354.5,-620 360.5,-614 366.5,-614 366.5,-614 485.5,-614 485.5,-614 491.5,-614 497.5,-620 497.5,-626 497.5,-626 497.5,-638 497.5,-638 497.5,-644 491.5,-650 485.5,-650"/>
<text text-anchor="middle" x="426" y="-628.3" font-family="Helvetica,sans-Serif" font-size="14.00">dive&#45;loop iteration</text>
</g>
<!-- s_extract -->
<g id="node2" class="node">
<title>s_extract</title>
<path fill="#fef3c7" stroke="black" d="M515.5,-547C515.5,-547 336.5,-547 336.5,-547 330.5,-547 324.5,-541 324.5,-535 324.5,-535 324.5,-521 324.5,-521 324.5,-515 330.5,-509 336.5,-509 336.5,-509 515.5,-509 515.5,-509 521.5,-509 527.5,-515 527.5,-521 527.5,-521 527.5,-535 527.5,-535 527.5,-541 521.5,-547 515.5,-547"/>
<text text-anchor="middle" x="426" y="-531.8" font-family="Helvetica,sans-Serif" font-size="14.00">extractFromMip() or</text>
<text text-anchor="middle" x="426" y="-516.8" font-family="Helvetica,sans-Serif" font-size="14.00">extractRinsNeighborhood()</text>
</g>
<!-- s_dive&#45;&gt;s_extract -->
<g id="edge1" class="edge">
<title>s_dive&#45;&gt;s_extract</title>
<path fill="none" stroke="black" d="M426,-613.7C426,-598.21 426,-575.21 426,-557.09"/>
<polygon fill="black" stroke="black" points="429.5,-557.08 426,-547.08 422.5,-557.08 429.5,-557.08"/>
</g>
<!-- s_write -->
<g id="node3" class="node">
<title>s_write</title>
<path fill="#fef3c7" stroke="black" d="M515,-443C515,-443 303,-443 303,-443 297,-443 291,-437 291,-431 291,-431 291,-419 291,-419 291,-413 297,-407 303,-407 303,-407 515,-407 515,-407 521,-407 527,-413 527,-419 527,-419 527,-431 527,-431 527,-437 521,-443 515,-443"/>
<text text-anchor="middle" x="409" y="-421.3" font-family="Helvetica,sans-Serif" font-size="14.00">write /tmp/highs_qubo_*.in.json</text>
</g>
<!-- s_extract&#45;&gt;s_write -->
<g id="edge2" class="edge">
<title>s_extract&#45;&gt;s_write</title>
<path fill="none" stroke="black" d="M422.96,-508.94C420.37,-493.53 416.6,-471.13 413.63,-453.49"/>
<polygon fill="black" stroke="black" points="417.01,-452.51 411.9,-443.23 410.11,-453.67 417.01,-452.51"/>
</g>
<!-- s_spawn -->
<g id="node4" class="node">
<title>s_spawn</title>
<path fill="#fef3c7" stroke="black" d="M477,-370C477,-370 359,-370 359,-370 353,-370 347,-364 347,-358 347,-358 347,-344 347,-344 347,-338 353,-332 359,-332 359,-332 477,-332 477,-332 483,-332 489,-338 489,-344 489,-344 489,-358 489,-358 489,-364 483,-370 477,-370"/>
<text text-anchor="middle" x="418" y="-354.8" font-family="Helvetica,sans-Serif" font-size="14.00">spawn std::thread</text>
<text text-anchor="middle" x="418" y="-339.8" font-family="Helvetica,sans-Serif" font-size="14.00">(worker)</text>
</g>
<!-- s_write&#45;&gt;s_spawn -->
<g id="edge3" class="edge">
<title>s_write&#45;&gt;s_spawn</title>
<path fill="none" stroke="black" d="M411.13,-406.94C412.13,-398.99 413.34,-389.31 414.46,-380.31"/>
<polygon fill="black" stroke="black" points="417.96,-380.56 415.73,-370.2 411.01,-379.69 417.96,-380.56"/>
</g>
<!-- s_return -->
<g id="node5" class="node">
<title>s_return</title>
<path fill="#fef3c7" stroke="black" d="M506,-263C506,-263 330,-263 330,-263 324,-263 318,-257 318,-251 318,-251 318,-239 318,-239 318,-233 324,-227 330,-227 330,-227 506,-227 506,-227 512,-227 518,-233 518,-239 518,-239 518,-251 518,-251 518,-257 512,-263 506,-263"/>
<text text-anchor="middle" x="418" y="-241.3" font-family="Helvetica,sans-Serif" font-size="14.00">return — search continues</text>
</g>
<!-- s_spawn&#45;&gt;s_return -->
<g id="edge4" class="edge">
<title>s_spawn&#45;&gt;s_return</title>
<path fill="none" stroke="black" d="M418,-331.88C418,-315.73 418,-291.86 418,-273.38"/>
<polygon fill="black" stroke="black" points="421.5,-273.22 418,-263.22 414.5,-273.22 421.5,-273.22"/>
</g>
<!-- w_run -->
<g id="node10" class="node">
<title>w_run</title>
<path fill="#dbeafe" stroke="black" d="M745,-264C745,-264 563,-264 563,-264 557,-264 551,-258 551,-252 551,-252 551,-238 551,-238 551,-232 557,-226 563,-226 563,-226 745,-226 745,-226 751,-226 757,-232 757,-238 757,-238 757,-252 757,-252 757,-258 751,-264 745,-264"/>
<text text-anchor="middle" x="654" y="-248.8" font-family="Helvetica,sans-Serif" font-size="14.00">std::system(python &#45;m</text>
<text text-anchor="middle" x="654" y="-233.8" font-family="Helvetica,sans-Serif" font-size="14.00">highspy_quantum solve …)</text>
</g>
<!-- s_spawn&#45;&gt;w_run -->
<g id="edge5" class="edge">
<title>s_spawn&#45;&gt;w_run</title>
<path fill="none" stroke="#dc2626" stroke-dasharray="5,2" d="M459.11,-331.88C499.34,-314.16 560.69,-287.12 603.79,-268.13"/>
<polygon fill="#dc2626" stroke="#dc2626" points="605.23,-271.32 612.97,-264.08 602.41,-264.91 605.23,-271.32"/>
<text text-anchor="middle" x="535.5" y="-306" font-family="Helvetica,sans-Serif" font-size="10.00"> &#160;start</text>
</g>
<!-- s_later -->
<g id="node6" class="node">
<title>s_later</title>
<path fill="#fef3c7" stroke="black" d="M223.5,-651C223.5,-651 98.5,-651 98.5,-651 92.5,-651 86.5,-645 86.5,-639 86.5,-639 86.5,-625 86.5,-625 86.5,-619 92.5,-613 98.5,-613 98.5,-613 223.5,-613 223.5,-613 229.5,-613 235.5,-619 235.5,-625 235.5,-625 235.5,-639 235.5,-639 235.5,-645 229.5,-651 223.5,-651"/>
<text text-anchor="middle" x="161" y="-635.8" font-family="Helvetica,sans-Serif" font-size="14.00">later dive iteration:</text>
<text text-anchor="middle" x="161" y="-620.8" font-family="Helvetica,sans-Serif" font-size="14.00">harvest()</text>
</g>
<!-- s_check -->
<g id="node7" class="node">
<title>s_check</title>
<path fill="#fef3c7" stroke="black" d="M149.39,-562.96C149.39,-562.96 27.61,-531.04 27.61,-531.04 21.8,-529.52 21.8,-526.48 27.61,-524.96 27.61,-524.96 149.39,-493.04 149.39,-493.04 155.2,-491.52 166.8,-491.52 172.61,-493.04 172.61,-493.04 294.39,-524.96 294.39,-524.96 300.2,-526.48 300.2,-529.52 294.39,-531.04 294.39,-531.04 172.61,-562.96 172.61,-562.96 166.8,-564.48 155.2,-564.48 149.39,-562.96"/>
<text text-anchor="middle" x="161" y="-531.8" font-family="Helvetica,sans-Serif" font-size="14.00">PendingCall.done?</text>
<text text-anchor="middle" x="161" y="-516.8" font-family="Helvetica,sans-Serif" font-size="14.00">(non&#45;blocking)</text>
</g>
<!-- s_later&#45;&gt;s_check -->
<g id="edge8" class="edge">
<title>s_later&#45;&gt;s_check</title>
<path fill="none" stroke="black" d="M156.75,-612.79C155.62,-607.12 154.56,-600.83 154,-595 153.38,-588.53 153.37,-581.7 153.73,-574.99"/>
<polygon fill="black" stroke="black" points="157.26,-574.86 154.58,-564.61 150.28,-574.29 157.26,-574.86"/>
</g>
<!-- s_check&#45;&gt;s_later -->
<g id="edge10" class="edge">
<title>s_check&#45;&gt;s_later</title>
<path fill="none" stroke="black" stroke-dasharray="5,2" d="M161,-566.09C161,-578.13 161,-591.29 161,-602.59"/>
<polygon fill="black" stroke="black" points="157.5,-602.76 161,-612.76 164.5,-602.76 157.5,-602.76"/>
<text text-anchor="middle" x="182.5" y="-587" font-family="Helvetica,sans-Serif" font-size="10.00">no (skip)</text>
</g>
<!-- s_parse -->
<g id="node8" class="node">
<title>s_parse</title>
<path fill="#fef3c7" stroke="black" d="M232,-443C232,-443 92,-443 92,-443 86,-443 80,-437 80,-431 80,-431 80,-419 80,-419 80,-413 86,-407 92,-407 92,-407 232,-407 232,-407 238,-407 244,-413 244,-419 244,-419 244,-431 244,-431 244,-437 238,-443 232,-443"/>
<text text-anchor="middle" x="162" y="-421.3" font-family="Helvetica,sans-Serif" font-size="14.00">parseResult(out.json)</text>
</g>
<!-- s_check&#45;&gt;s_parse -->
<g id="edge9" class="edge">
<title>s_check&#45;&gt;s_parse</title>
<path fill="none" stroke="black" d="M161.37,-489.96C161.49,-477.85 161.62,-464.62 161.73,-453.35"/>
<polygon fill="black" stroke="black" points="165.23,-453.28 161.83,-443.24 158.23,-453.21 165.23,-453.28"/>
<text text-anchor="middle" x="170" y="-464" font-family="Helvetica,sans-Serif" font-size="10.00">yes</text>
</g>
<!-- s_try -->
<g id="node9" class="node">
<title>s_try</title>
<path fill="#fef3c7" stroke="black" d="M302,-370C302,-370 28,-370 28,-370 22,-370 16,-364 16,-358 16,-358 16,-344 16,-344 16,-338 22,-332 28,-332 28,-332 302,-332 302,-332 308,-332 314,-338 314,-344 314,-344 314,-358 314,-358 314,-364 308,-370 302,-370"/>
<text text-anchor="middle" x="165" y="-354.8" font-family="Helvetica,sans-Serif" font-size="14.00">mipdata.trySolution(</text>
<text text-anchor="middle" x="165" y="-339.8" font-family="Helvetica,sans-Serif" font-size="14.00"> &#160;assignment, kSolutionSourceQuantum)</text>
</g>
<!-- s_parse&#45;&gt;s_try -->
<g id="edge11" class="edge">
<title>s_parse&#45;&gt;s_try</title>
<path fill="none" stroke="black" d="M162.71,-406.94C163.04,-398.99 163.45,-389.31 163.82,-380.31"/>
<polygon fill="black" stroke="black" points="167.32,-380.34 164.24,-370.2 160.33,-380.04 167.32,-380.34"/>
</g>
<!-- w_subproc -->
<g id="node11" class="node">
<title>w_subproc</title>
<path fill="#dbeafe" stroke="black" d="M741.5,-189C741.5,-189 574.5,-189 574.5,-189 568.5,-189 562.5,-183 562.5,-177 562.5,-177 562.5,-103 562.5,-103 562.5,-97 568.5,-91 574.5,-91 574.5,-91 741.5,-91 741.5,-91 747.5,-91 753.5,-97 753.5,-103 753.5,-103 753.5,-177 753.5,-177 753.5,-183 747.5,-189 741.5,-189"/>
<text text-anchor="middle" x="658" y="-173.8" font-family="Helvetica,sans-Serif" font-size="14.00">subprocess:</text>
<text text-anchor="middle" x="658" y="-158.8" font-family="Helvetica,sans-Serif" font-size="14.00">• decode_input(in.json)</text>
<text text-anchor="middle" x="658" y="-143.8" font-family="Helvetica,sans-Serif" font-size="14.00">• structure.detect()</text>
<text text-anchor="middle" x="658" y="-128.8" font-family="Helvetica,sans-Serif" font-size="14.00">• backend.solve(bqm)</text>
<text text-anchor="middle" x="658" y="-113.8" font-family="Helvetica,sans-Serif" font-size="14.00">• repair if infeasible</text>
<text text-anchor="middle" x="658" y="-98.8" font-family="Helvetica,sans-Serif" font-size="14.00">• encode_result(out.json)</text>
</g>
<!-- w_run&#45;&gt;w_subproc -->
<g id="edge6" class="edge">
<title>w_run&#45;&gt;w_subproc</title>
<path fill="none" stroke="black" d="M654.72,-225.59C655.01,-218.11 655.36,-209.01 655.72,-199.6"/>
<polygon fill="black" stroke="black" points="659.23,-199.44 656.12,-189.31 652.24,-199.17 659.23,-199.44"/>
</g>
<!-- w_done -->
<g id="node12" class="node">
<title>w_done</title>
<path fill="#dbeafe" stroke="black" d="M748.5,-54C748.5,-54 585.5,-54 585.5,-54 579.5,-54 573.5,-48 573.5,-42 573.5,-42 573.5,-28 573.5,-28 573.5,-22 579.5,-16 585.5,-16 585.5,-16 748.5,-16 748.5,-16 754.5,-16 760.5,-22 760.5,-28 760.5,-28 760.5,-42 760.5,-42 760.5,-48 754.5,-54 748.5,-54"/>
<text text-anchor="middle" x="667" y="-38.8" font-family="Helvetica,sans-Serif" font-size="14.00">PendingCall.done = true</text>
<text text-anchor="middle" x="667" y="-23.8" font-family="Helvetica,sans-Serif" font-size="14.00">(release&#45;store)</text>
</g>
<!-- w_subproc&#45;&gt;w_done -->
<g id="edge7" class="edge">
<title>w_subproc&#45;&gt;w_done</title>
<path fill="none" stroke="black" d="M662.21,-90.82C663,-81.79 663.8,-72.62 664.52,-64.44"/>
<polygon fill="black" stroke="black" points="668.01,-64.6 665.4,-54.34 661.04,-63.99 668.01,-64.6"/>
</g>
<!-- w_done&#45;&gt;s_check -->
<g id="edge12" class="edge">
<title>w_done&#45;&gt;s_check</title>
<path fill="none" stroke="#16a34a" stroke-dasharray="5,2" d="M712.28,-54.04C745.56,-70.62 785,-98.75 785,-139 785,-426 785,-426 785,-426 785,-478.59 367.7,-480.33 316,-490 291.85,-494.52 265.8,-500.36 242.08,-506.05"/>
<polygon fill="#16a34a" stroke="#16a34a" points="240.96,-502.72 232.06,-508.48 242.61,-509.52 240.96,-502.72"/>
<text text-anchor="middle" x="818.5" y="-306" font-family="Helvetica,sans-Serif" font-size="10.00"> &#160;acquire&#45;load</text>
</g>
</g>
</svg>
