<?xml version="1.0" encoding="UTF-8" standalone="no"?>
<!DOCTYPE svg PUBLIC "-//W3C//DTD SVG 1.1//EN"
 "http://www.w3.org/Graphics/SVG/1.1/DTD/svg11.dtd">
<!-- Generated by graphviz version 2.43.0 (0)
 -->
<!-- Title: extraction_paths Pages: 1 -->
<svg width="662pt" height="633pt"
 viewBox="0.00 0.00 662.00 633.00" xmlns="http://www.w3.org/2000/svg" xmlns:xlink="http://www.w3.org/1999/xlink">
<g id="graph0" class="graph" transform="scale(1 1) rotate(0) translate(4 629)">
<title>extraction_paths</title>
<polygon fill="white" stroke="transparent" points="-4,4 -4,-629 658,-629 658,4 -4,4"/>
<text text-anchor="middle" x="327" y="-609.8" font-family="Helvetica,sans-Serif" font-size="14.00">Extraction mode selection (HighsMipSolverData::quantumHeuristic)</text>
<!-- start -->
<g id="node1" class="node">
<title>start</title>
<ellipse fill="#dbeafe" stroke="black" cx="373" cy="-584" rx="128.08" ry="18"/>
<text text-anchor="middle" x="373" y="-580.3" font-family="Helvetica,sans-Serif" font-size="14.00">quantumHeuristic() called</text>
</g>
<!-- mode -->
<g id="node2" class="node">
<title>mode</title>
<path fill="#fef3c7" stroke="black" d="M361.11,-527.39C361.11,-527.39 103.89,-492.61 103.89,-492.61 97.95,-491.8 97.95,-490.2 103.89,-489.39 103.89,-489.39 361.11,-454.61 361.11,-454.61 367.05,-453.8 378.95,-453.8 384.89,-454.61 384.89,-454.61 642.11,-489.39 642.11,-489.39 648.05,-490.2 648.05,-491.8 642.11,-492.61 642.11,-492.61 384.89,-527.39 384.89,-527.39 378.95,-528.2 367.05,-528.2 361.11,-527.39"/>
<text text-anchor="middle" x="373" y="-494.8" font-family="Helvetica,sans-Serif" font-size="14.00">options.mip_quantum_heuristic_mode</text>
<text text-anchor="middle" x="373" y="-479.8" font-family="Helvetica,sans-Serif" font-size="14.00">== &quot;rins&quot; ?</text>
</g>
<!-- start&#45;&gt;mode -->
<g id="edge1" class="edge">
<title>start&#45;&gt;mode</title>
<path fill="none" stroke="black" d="M373,-565.88C373,-558.25 373,-548.83 373,-539.31"/>
<polygon fill="black" stroke="black" points="376.5,-539.02 373,-529.02 369.5,-539.02 376.5,-539.02"/>
</g>
<!-- has_inc -->
<g id="node3" class="node">
<title>has_inc</title>
<path fill="#fef3c7" stroke="black" d="M273.09,-404.56C273.09,-404.56 148.11,-389.44 148.11,-389.44 142.15,-388.72 142.15,-387.28 148.11,-386.56 148.11,-386.56 273.09,-371.44 273.09,-371.44 279.04,-370.72 290.96,-370.72 296.91,-371.44 296.91,-371.44 421.89,-386.56 421.89,-386.56 427.85,-387.28 427.85,-388.72 421.89,-389.44 421.89,-389.44 296.91,-404.56 296.91,-404.56 290.96,-405.28 279.04,-405.28 273.09,-404.56"/>
<text text-anchor="middle" x="285" y="-384.3" font-family="Helvetica,sans-Serif" font-size="14.00">incumbent.empty() ?</text>
</g>
<!-- mode&#45;&gt;has_inc -->
<g id="edge2" class="edge">
<title>mode&#45;&gt;has_inc</title>
<path fill="none" stroke="black" d="M343.94,-456.65C331.26,-442.09 316.69,-425.37 305.21,-412.2"/>
<polygon fill="black" stroke="black" points="307.71,-409.74 298.51,-404.5 302.44,-414.34 307.71,-409.74"/>
<text text-anchor="middle" x="333" y="-427" font-family="Helvetica,sans-Serif" font-size="10.00">yes</text>
</g>
<!-- whole -->
<g id="node6" class="node">
<title>whole</title>
<path fill="#dcfce7" stroke="black" d="M403.5,-123C403.5,-123 258.5,-123 258.5,-123 252.5,-123 246.5,-117 246.5,-111 246.5,-111 246.5,-97 246.5,-97 246.5,-91 252.5,-85 258.5,-85 258.5,-85 403.5,-85 403.5,-85 409.5,-85 415.5,-91 415.5,-97 415.5,-97 415.5,-111 415.5,-111 415.5,-117 409.5,-123 403.5,-123"/>
<text text-anchor="middle" x="331" y="-107.8" font-family="Helvetica,sans-Serif" font-size="14.00">extractFromMip</text>
<text text-anchor="middle" x="331" y="-92.8" font-family="Helvetica,sans-Serif" font-size="14.00"> &#160;(mipdata, max_vars)</text>
</g>
<!-- mode&#45;&gt;whole -->
<g id="edge3" class="edge">
<title>mode&#45;&gt;whole</title>
<path fill="none" stroke="black" d="M420.63,-459.39C441.79,-441.79 462,-417.51 462,-389 462,-389 462,-389 462,-195.5 462,-162.93 434.26,-141.17 404.3,-127.17"/>
<polygon fill="black" stroke="black" points="405.53,-123.89 394.96,-123.07 402.71,-130.3 405.53,-123.89"/>
<text text-anchor="middle" x="499" y="-294" font-family="Helvetica,sans-Serif" font-size="10.00">no (or &quot;whole&quot;)</text>
</g>
<!-- rins -->
<g id="node4" class="node">
<title>rins</title>
<path fill="#dcfce7" stroke="black" d="M314,-323C314,-323 132,-323 132,-323 126,-323 120,-317 120,-311 120,-311 120,-282 120,-282 120,-276 126,-270 132,-270 132,-270 314,-270 314,-270 320,-270 326,-276 326,-282 326,-282 326,-311 326,-311 326,-317 320,-323 314,-323"/>
<text text-anchor="middle" x="223" y="-307.8" font-family="Helvetica,sans-Serif" font-size="14.00">extractRinsNeighborhood</text>
<text text-anchor="middle" x="223" y="-292.8" font-family="Helvetica,sans-Serif" font-size="14.00"> &#160;(mipdata, max_vars,</text>
<text text-anchor="middle" x="223" y="-277.8" font-family="Helvetica,sans-Serif" font-size="14.00"> &#160;&#160;mip_feasibility_tolerance)</text>
</g>
<!-- has_inc&#45;&gt;rins -->
<g id="edge4" class="edge">
<title>has_inc&#45;&gt;rins</title>
<path fill="none" stroke="black" d="M273.92,-371C266.3,-360.01 255.91,-345 246.49,-331.41"/>
<polygon fill="black" stroke="black" points="249.36,-329.41 240.79,-323.18 243.61,-333.4 249.36,-329.41"/>
<text text-anchor="middle" x="266.5" y="-344" font-family="Helvetica,sans-Serif" font-size="10.00">no</text>
</g>
<!-- has_inc&#45;&gt;whole -->
<g id="edge5" class="edge">
<title>has_inc&#45;&gt;whole</title>
<path fill="none" stroke="black" d="M300.68,-371.66C312.08,-359.54 326.89,-341.61 335,-323 362.31,-260.32 361.17,-237.61 351,-170 349.13,-157.57 345.36,-144.25 341.59,-132.91"/>
<polygon fill="black" stroke="black" points="344.78,-131.44 338.18,-123.15 338.17,-133.75 344.78,-131.44"/>
<text text-anchor="middle" x="396" y="-244" font-family="Helvetica,sans-Serif" font-size="10.00">yes (no anchor)</text>
</g>
<!-- fallback -->
<g id="node5" class="node">
<title>fallback</title>
<path fill="#fee2e2" stroke="black" d="M330.5,-223C330.5,-223 115.5,-223 115.5,-223 109.5,-223 103.5,-217 103.5,-211 103.5,-211 103.5,-182 103.5,-182 103.5,-176 109.5,-170 115.5,-170 115.5,-170 330.5,-170 330.5,-170 336.5,-170 342.5,-176 342.5,-182 342.5,-182 342.5,-211 342.5,-211 342.5,-217 336.5,-223 330.5,-223"/>
<text text-anchor="middle" x="223" y="-207.8" font-family="Helvetica,sans-Serif" font-size="14.00">(RINS returned non&#45;kOk reason)</text>
<text text-anchor="middle" x="223" y="-192.8" font-family="Helvetica,sans-Serif" font-size="14.00">fall back to:</text>
<text text-anchor="middle" x="223" y="-177.8" font-family="Helvetica,sans-Serif" font-size="14.00">extractFromMip</text>
</g>
<!-- rins&#45;&gt;fallback -->
<g id="edge6" class="edge">
<title>rins&#45;&gt;fallback</title>
<path fill="none" stroke="black" stroke-dasharray="5,2" d="M223,-269.75C223,-258.61 223,-245.38 223,-233.31"/>
<polygon fill="black" stroke="black" points="226.5,-233.08 223,-223.08 219.5,-233.08 226.5,-233.08"/>
<text text-anchor="middle" x="258.5" y="-244" font-family="Helvetica,sans-Serif" font-size="10.00">reason != kOk</text>
</g>
<!-- dispatch -->
<g id="node7" class="node">
<title>dispatch</title>
<path fill="#dbeafe" stroke="black" d="M192,-37C192,-37 12,-37 12,-37 6,-37 0,-31 0,-25 0,-25 0,-13 0,-13 0,-7 6,-1 12,-1 12,-1 192,-1 192,-1 198,-1 204,-7 204,-13 204,-13 204,-25 204,-25 204,-31 198,-37 192,-37"/>
<text text-anchor="middle" x="102" y="-15.3" font-family="Helvetica,sans-Serif" font-size="14.00">toJson() &#160;→ &#160;dispatch async</text>
</g>
<!-- rins&#45;&gt;dispatch -->
<g id="edge7" class="edge">
<title>rins&#45;&gt;dispatch</title>
<path fill="none" stroke="black" d="M147.38,-269.83C126.39,-258.83 106.07,-243.62 94,-223 61.49,-167.43 79.41,-87.9 92.37,-46.83"/>
<polygon fill="black" stroke="black" points="95.72,-47.85 95.52,-37.26 89.07,-45.66 95.72,-47.85"/>
<text text-anchor="middle" x="114" y="-144" font-family="Helvetica,sans-Serif" font-size="10.00">reason == kOk</text>
</g>
<!-- fallback&#45;&gt;whole -->
<g id="edge8" class="edge">
<title>fallback&#45;&gt;whole</title>
<path fill="none" stroke="black" d="M253.66,-169.81C268.6,-157.29 286.5,-142.29 301.31,-129.88"/>
<polygon fill="black" stroke="black" points="303.77,-132.39 309.19,-123.28 299.27,-127.02 303.77,-132.39"/>
</g>
<!-- whole&#45;&gt;dispatch -->
<g id="edge9" class="edge">
<title>whole&#45;&gt;dispatch</title>
<path fill="none" stroke="black" d="M281.31,-84.99C245.33,-71.95 196.61,-54.29 159.03,-40.67"/>
<polygon fill="black" stroke="black" points="159.84,-37.24 149.24,-37.12 157.45,-43.82 159.84,-37.24"/>
<text text-anchor="middle" x="269" y="-59" font-family="Helvetica,sans-Serif" font-size="10.00">reason == kOk</text>
</g>
<!-- skip -->
<g id="node8" class="node">
<title>skip</title>
<path fill="#fee2e2" stroke="black" d="M386,-38C386,-38 276,-38 276,-38 270,-38 264,-32 264,-26 264,-26 264,-12 264,-12 264,-6 270,0 276,0 276,0 386,0 386,0 392,0 398,-6 398,-12 398,-12 398,-26 398,-26 398,-32 392,-38 386,-38"/>
<text text-anchor="middle" x="331" y="-22.8" font-family="Helvetica,sans-Serif" font-size="14.00">log &quot;skipped: …&quot;</text>
<text text-anchor="middle" x="331" y="-7.8" font-family="Helvetica,sans-Serif" font-size="14.00">return</text>
</g>
<!-- whole&#45;&gt;skip -->
<g id="edge10" class="edge">
<title>whole&#45;&gt;skip</title>
<path fill="none" stroke="black" stroke-dasharray="5,2" d="M331,-84.99C331,-74.3 331,-60.5 331,-48.37"/>
<polygon fill="black" stroke="black" points="334.5,-48.26 331,-38.26 327.5,-48.26 334.5,-48.26"/>
<text text-anchor="middle" x="366.5" y="-59" font-family="Helvetica,sans-Serif" font-size="10.00">reason != kOk</text>
</g>
</g>
</svg>
