<?xml version="1.0" encoding="UTF-8" standalone="no"?>
<!DOCTYPE svg PUBLIC "-//W3C//DTD SVG 1.1//EN"
 "http://www.w3.org/Graphics/SVG/1.1/DTD/svg11.dtd">
<!-- Generated by graphviz version 2.43.0 (0)
 -->
<!-- Title: solve_pipeline Pages: 1 -->
<svg width="3054pt" height="292pt"
 viewBox="0.00 0.00 3054.21 291.87" xmlns="http://www.w3.org/2000/svg" xmlns:xlink="http://www.w3.org/1999/xlink">
<g id="graph0" class="graph" transform="scale(1 1) rotate(0) translate(4 287.87)">
<title>solve_pipeline</title>
<polygon fill="white" stroke="transparent" points="-4,4 -4,-287.87 3050.21,-287.87 3050.21,4 -4,4"/>
<text text-anchor="middle" x="1523.1" y="-268.67" font-family="Helvetica,sans-Serif" font-size="14.00">Python&#45;side solve pipeline (cli._run_backend)</text>
<!-- input -->
<g id="node1" class="node">
<title>input</title>
<ellipse fill="#dbeafe" stroke="black" cx="88.39" cy="-26.87" rx="88.28" ry="26.74"/>
<text text-anchor="middle" x="88.39" y="-30.67" font-family="Helvetica,sans-Serif" font-size="14.00">MipSubproblem</text>
<text text-anchor="middle" x="88.39" y="-15.67" font-family="Helvetica,sans-Serif" font-size="14.00">(from JSON)</text>
</g>
<!-- detect -->
<g id="node2" class="node">
<title>detect</title>
<path fill="#fef3c7" stroke="black" d="M328.74,-43.18C328.74,-43.18 225.81,-28.56 225.81,-28.56 219.87,-27.71 219.87,-26.03 225.81,-25.18 225.81,-25.18 328.74,-10.56 328.74,-10.56 334.68,-9.71 346.56,-9.71 352.5,-10.56 352.5,-10.56 455.43,-25.18 455.43,-25.18 461.37,-26.03 461.37,-27.71 455.43,-28.56 455.43,-28.56 352.5,-43.18 352.5,-43.18 346.56,-44.03 334.68,-44.03 328.74,-43.18"/>
<text text-anchor="middle" x="340.62" y="-23.17" font-family="Helvetica,sans-Serif" font-size="14.00">structure.detect()</text>
</g>
<!-- input&#45;&gt;detect -->
<g id="edge1" class="edge">
<title>input&#45;&gt;detect</title>
<path fill="none" stroke="black" d="M176.91,-26.87C185.61,-26.87 194.58,-26.87 203.63,-26.87"/>
<polygon fill="black" stroke="black" points="203.87,-30.37 213.87,-26.87 203.87,-23.37 203.87,-30.37"/>
</g>
<!-- spec_bqm -->
<g id="node3" class="node">
<title>spec_bqm</title>
<ellipse fill="#dcfce7" stroke="black" cx="703.63" cy="-65.87" rx="166.34" ry="26.74"/>
<text text-anchor="middle" x="703.63" y="-69.67" font-family="Helvetica,sans-Serif" font-size="14.00">reformulation.&lt;tag&gt;.build()</text>
<text text-anchor="middle" x="703.63" y="-54.67" font-family="Helvetica,sans-Serif" font-size="14.00"> &#160;(set_partitioning, max_cut, …)</text>
</g>
<!-- detect&#45;&gt;spec_bqm -->
<g id="edge2" class="edge">
<title>detect&#45;&gt;spec_bqm</title>
<path fill="none" stroke="black" d="M413.38,-34.62C453.87,-39 506.01,-44.63 554.84,-49.9"/>
<polygon fill="black" stroke="black" points="554.56,-53.39 564.88,-50.99 555.32,-46.43 554.56,-53.39"/>
<text text-anchor="middle" x="502.46" y="-48.87" font-family="Helvetica,sans-Serif" font-size="10.00">tagged</text>
</g>
<!-- gen_bqm -->
<g id="node4" class="node">
<title>gen_bqm</title>
<ellipse fill="#dcfce7" stroke="black" cx="2674.04" cy="-48.87" rx="161.44" ry="26.74"/>
<text text-anchor="middle" x="2674.04" y="-52.67" font-family="Helvetica,sans-Serif" font-size="14.00">build_bqm_from_subproblem()</text>
<text text-anchor="middle" x="2674.04" y="-37.67" font-family="Helvetica,sans-Serif" font-size="14.00"> &#160;(penalty method)</text>
</g>
<!-- detect&#45;&gt;gen_bqm -->
<g id="edge3" class="edge">
<title>detect&#45;&gt;gen_bqm</title>
<path fill="none" stroke="black" d="M426.19,-21C499.32,-16.44 607.9,-10.87 702.63,-10.87 702.63,-10.87 702.63,-10.87 2291.82,-10.87 2375.99,-10.87 2470.1,-20.16 2543.75,-29.55"/>
<polygon fill="black" stroke="black" points="2543.64,-33.06 2554.01,-30.87 2544.54,-26.12 2543.64,-33.06"/>
<text text-anchor="middle" x="1554.98" y="-13.87" font-family="Helvetica,sans-Serif" font-size="10.00">untagged</text>
</g>
<!-- solve -->
<g id="node5" class="node">
<title>solve</title>
<ellipse fill="#dbeafe" stroke="black" cx="1058.89" cy="-65.87" rx="152.17" ry="18"/>
<text text-anchor="middle" x="1058.89" y="-62.17" font-family="Helvetica,sans-Serif" font-size="14.00">backend.solve(bqm, time_limit)</text>
</g>
<!-- spec_bqm&#45;&gt;solve -->
<g id="edge4" class="edge">
<title>spec_bqm&#45;&gt;solve</title>
<path fill="none" stroke="black" d="M869.89,-65.87C878.82,-65.87 887.8,-65.87 896.72,-65.87"/>
<polygon fill="black" stroke="black" points="896.77,-69.37 906.77,-65.87 896.77,-62.37 896.77,-69.37"/>
</g>
<!-- gen_bqm&#45;&gt;solve -->
<g id="edge5" class="edge">
<title>gen_bqm&#45;&gt;solve</title>
<path fill="none" stroke="black" d="M2512.59,-48.87C2444.51,-48.87 2364.29,-48.87 2291.82,-48.87 1379.98,-48.87 1379.98,-48.87 1379.98,-48.87 1319.87,-48.87 1253.5,-51.9 1196.85,-55.4"/>
<polygon fill="black" stroke="black" points="1196.52,-51.91 1186.76,-56.03 1196.96,-58.9 1196.52,-51.91"/>
</g>
<!-- pick -->
<g id="node6" class="node">
<title>pick</title>
<path fill="#fef3c7" stroke="black" d="M1369.44,-149.57C1369.44,-149.57 1259.52,-118.17 1259.52,-118.17 1253.75,-116.52 1253.75,-113.22 1259.52,-111.57 1259.52,-111.57 1369.44,-80.17 1369.44,-80.17 1375.21,-78.52 1386.75,-78.52 1392.52,-80.17 1392.52,-80.17 1502.44,-111.57 1502.44,-111.57 1508.21,-113.22 1508.21,-116.52 1502.44,-118.17 1502.44,-118.17 1392.52,-149.57 1392.52,-149.57 1386.75,-151.22 1375.21,-151.22 1369.44,-149.57"/>
<text text-anchor="middle" x="1380.98" y="-118.67" font-family="Helvetica,sans-Serif" font-size="14.00">for each sample:</text>
<text text-anchor="middle" x="1380.98" y="-103.67" font-family="Helvetica,sans-Serif" font-size="14.00">feasible?</text>
</g>
<!-- solve&#45;&gt;pick -->
<g id="edge6" class="edge">
<title>solve&#45;&gt;pick</title>
<path fill="none" stroke="black" d="M1152.9,-80.11C1194,-86.4 1242.29,-93.79 1283.75,-100.14"/>
<polygon fill="black" stroke="black" points="1283.45,-103.63 1293.86,-101.69 1284.51,-96.71 1283.45,-103.63"/>
</g>
<!-- repair -->
<g id="node7" class="node">
<title>repair</title>
<ellipse fill="#fce7f3" stroke="black" cx="1704.87" cy="-218.87" rx="108.79" ry="26.74"/>
<text text-anchor="middle" x="1704.87" y="-222.67" font-family="Helvetica,sans-Serif" font-size="14.00">repair.repair(sub, x)</text>
<text text-anchor="middle" x="1704.87" y="-207.67" font-family="Helvetica,sans-Serif" font-size="14.00"> &#160;greedy flip</text>
</g>
<!-- pick&#45;&gt;repair -->
<g id="edge7" class="edge">
<title>pick&#45;&gt;repair</title>
<path fill="none" stroke="black" d="M1444.04,-134.92C1496.72,-151.94 1572.46,-176.41 1628.59,-194.55"/>
<polygon fill="black" stroke="black" points="1627.53,-197.88 1638.13,-197.63 1629.69,-191.22 1627.53,-197.88"/>
<text text-anchor="middle" x="1554.98" y="-178.87" font-family="Helvetica,sans-Serif" font-size="10.00">no</text>
</g>
<!-- best -->
<g id="node8" class="node">
<title>best</title>
<ellipse fill="#dbeafe" stroke="black" cx="2674.04" cy="-213.87" rx="116.85" ry="26.74"/>
<text text-anchor="middle" x="2674.04" y="-217.67" font-family="Helvetica,sans-Serif" font-size="14.00">select best by</text>
<text text-anchor="middle" x="2674.04" y="-202.67" font-family="Helvetica,sans-Serif" font-size="14.00">(feasibility, objective)</text>
</g>
<!-- pick&#45;&gt;best -->
<g id="edge8" class="edge">
<title>pick&#45;&gt;best</title>
<path fill="none" stroke="black" d="M1481.57,-105.48C1545.11,-100.29 1629.26,-94.87 1703.87,-94.87 1703.87,-94.87 1703.87,-94.87 2291.82,-94.87 2382.26,-94.87 2408.44,-82.09 2494.82,-108.87 2545.57,-124.6 2597.19,-157.23 2631.72,-181.96"/>
<polygon fill="black" stroke="black" points="2629.98,-185.02 2640.12,-188.06 2634.09,-179.35 2629.98,-185.02"/>
<text text-anchor="middle" x="2021.79" y="-97.87" font-family="Helvetica,sans-Serif" font-size="10.00">yes</text>
</g>
<!-- repair&#45;&gt;best -->
<g id="edge9" class="edge">
<title>repair&#45;&gt;best</title>
<path fill="none" stroke="black" d="M1797.49,-233C1835.26,-238.16 1879.52,-243.34 1919.77,-245.87 2145.8,-260.08 2410.39,-240.46 2558.17,-226.25"/>
<polygon fill="black" stroke="black" points="2558.55,-229.73 2568.17,-225.28 2557.88,-222.77 2558.55,-229.73"/>
<text text-anchor="middle" x="2150.82" y="-252.87" font-family="Helvetica,sans-Serif" font-size="10.00">ok</text>
</g>
<!-- esc -->
<g id="node9" class="node">
<title>esc</title>
<path fill="#fef3c7" stroke="black" d="M2009.98,-234.79C2009.98,-234.79 1931.56,-220.95 1931.56,-220.95 1925.65,-219.91 1925.65,-217.83 1931.56,-216.79 1931.56,-216.79 2009.98,-202.95 2009.98,-202.95 2015.88,-201.91 2027.7,-201.91 2033.61,-202.95 2033.61,-202.95 2112.03,-216.79 2112.03,-216.79 2117.94,-217.83 2117.94,-219.91 2112.03,-220.95 2112.03,-220.95 2033.61,-234.79 2033.61,-234.79 2027.7,-235.83 2015.88,-235.83 2009.98,-234.79"/>
<text text-anchor="middle" x="2021.79" y="-215.17" font-family="Helvetica,sans-Serif" font-size="14.00">all infeasible?</text>
</g>
<!-- repair&#45;&gt;esc -->
<g id="edge10" class="edge">
<title>repair&#45;&gt;esc</title>
<path fill="none" stroke="black" d="M1813.81,-218.87C1844.74,-218.87 1878.5,-218.87 1909.62,-218.87"/>
<polygon fill="black" stroke="black" points="1909.63,-222.37 1919.63,-218.87 1909.63,-215.37 1909.63,-222.37"/>
<text text-anchor="middle" x="1866.77" y="-221.87" font-family="Helvetica,sans-Serif" font-size="10.00">still infeasible</text>
</g>
<!-- out -->
<g id="node11" class="node">
<title>out</title>
<ellipse fill="#dbeafe" stroke="black" cx="2959.23" cy="-213.87" rx="86.95" ry="26.74"/>
<text text-anchor="middle" x="2959.23" y="-217.67" font-family="Helvetica,sans-Serif" font-size="14.00">encode_result()</text>
<text text-anchor="middle" x="2959.23" y="-202.67" font-family="Helvetica,sans-Serif" font-size="14.00">→ JSON</text>
</g>
<!-- best&#45;&gt;out -->
<g id="edge15" class="edge">
<title>best&#45;&gt;out</title>
<path fill="none" stroke="black" d="M2791.04,-213.87C2814.49,-213.87 2838.9,-213.87 2861.6,-213.87"/>
<polygon fill="black" stroke="black" points="2861.89,-217.37 2871.89,-213.87 2861.89,-210.37 2861.89,-217.37"/>
</g>
<!-- esc&#45;&gt;best -->
<g id="edge12" class="edge">
<title>esc&#45;&gt;best</title>
<path fill="none" stroke="black" d="M2119.79,-218.12C2233.54,-217.25 2422.4,-215.8 2547.3,-214.84"/>
<polygon fill="black" stroke="black" points="2547.33,-218.34 2557.31,-214.76 2547.28,-211.34 2547.33,-218.34"/>
<text text-anchor="middle" x="2290.82" y="-219.87" font-family="Helvetica,sans-Serif" font-size="10.00">no (give up)</text>
</g>
<!-- doublepen -->
<g id="node10" class="node">
<title>doublepen</title>
<path fill="#fef3c7" stroke="black" d="M2279.45,-195.05C2279.45,-195.05 2189.19,-164.69 2189.19,-164.69 2183.51,-162.78 2183.51,-158.96 2189.19,-157.05 2189.19,-157.05 2279.45,-126.69 2279.45,-126.69 2285.13,-124.78 2296.51,-124.78 2302.19,-126.69 2302.19,-126.69 2392.45,-157.05 2392.45,-157.05 2398.13,-158.96 2398.13,-162.78 2392.45,-164.69 2392.45,-164.69 2302.19,-195.05 2302.19,-195.05 2296.51,-196.96 2285.13,-196.96 2279.45,-195.05"/>
<text text-anchor="middle" x="2290.82" y="-164.67" font-family="Helvetica,sans-Serif" font-size="14.00">penalty *= 2</text>
<text text-anchor="middle" x="2290.82" y="-149.67" font-family="Helvetica,sans-Serif" font-size="14.00">attempt &lt; 4 ?</text>
</g>
<!-- esc&#45;&gt;doublepen -->
<g id="edge11" class="edge">
<title>esc&#45;&gt;doublepen</title>
<path fill="none" stroke="black" d="M2068.09,-209.03C2107.4,-200.49 2165.19,-187.94 2211.91,-177.79"/>
<polygon fill="black" stroke="black" points="2212.67,-181.21 2221.7,-175.67 2211.19,-174.37 2212.67,-181.21"/>
<text text-anchor="middle" x="2150.82" y="-193.87" font-family="Helvetica,sans-Serif" font-size="10.00">yes</text>
</g>
<!-- doublepen&#45;&gt;gen_bqm -->
<g id="edge13" class="edge">
<title>doublepen&#45;&gt;gen_bqm</title>
<path fill="none" stroke="black" d="M2351.8,-143.25C2414.09,-124.95 2512.22,-96.12 2583.64,-75.13"/>
<polygon fill="black" stroke="black" points="2584.93,-78.4 2593.54,-72.23 2582.96,-71.69 2584.93,-78.4"/>
<text text-anchor="middle" x="2458.32" y="-124.87" font-family="Helvetica,sans-Serif" font-size="10.00">yes (retry)</text>
</g>
<!-- doublepen&#45;&gt;best -->
<g id="edge14" class="edge">
<title>doublepen&#45;&gt;best</title>
<path fill="none" stroke="black" d="M2371.27,-171.92C2426.98,-179.66 2502.16,-190.11 2563.54,-198.65"/>
<polygon fill="black" stroke="black" points="2563.27,-202.14 2573.66,-200.05 2564.23,-195.21 2563.27,-202.14"/>
<text text-anchor="middle" x="2458.32" y="-191.87" font-family="Helvetica,sans-Serif" font-size="10.00">no (return last)</text>
</g>
</g>
</svg>
